<?xml version="1.0" standalone="no"?>
<!DOCTYPE svg PUBLIC "-//W3C//DTD SVG 20010904//EN"
 "http://www.w3.org/TR/2001/REC-SVG-20010904/DTD/svg10.dtd">
<svg version="1.0" xmlns="http://www.w3.org/2000/svg"
 width="95.000000pt" height="95.000000pt" viewBox="0 0 95.000000 95.000000"
 preserveAspectRatio="xMidYMid meet">
<metadata>
Created by potrace 1.14, written by Peter Selinger 2001-2017
</metadata>
<g transform="translate(0.000000,95.000000) scale(0.100000,-0.100000)"
fill="#000000" stroke="none">
<path d="M64 662 c-21 -16 -22 -24 -21 -213 0 -212 -2 -205 54 -193 21 4 22 8
20 144 0 77 1 142 4 144 3 3 33 -38 67 -90 35 -52 68 -92 73 -88 8 4 178 257
203 302 5 9 -4 12 -33 12 -41 0 -41 -1 -107 -100 -36 -55 -67 -100 -68 -100
-1 0 -31 45 -66 100 -69 106 -84 116 -126 82z"/>
<path d="M550 673 c1 -5 67 -100 149 -213 136 -190 149 -205 179 -207 l32 -1
0 214 0 214 -35 0 c-21 0 -36 -5 -36 -12 -1 -7 -2 -68 -3 -135 -1 -67 -3 -124
-6 -127 -3 -3 -51 58 -105 134 -98 137 -101 140 -137 140 -21 0 -38 -3 -38 -7z"/>
<path d="M535 420 c0 -88 2 -161 5 -161 3 -1 20 -3 38 -5 l32 -2 0 115 0 115
-36 49 c-20 27 -36 49 -37 49 -1 0 -2 -72 -2 -160z"/>
<path d="M428 507 c-32 -52 -33 -58 -33 -153 l0 -99 38 -1 37 -1 0 153 c0 85
-2 154 -4 154 -3 0 -19 -24 -38 -53z"/>
</g>
</svg>
